<svg xmlns="http://www.w3.org/2000/svg" viewBox="0 -170 1592 1592">
	<defs>
		<linearGradient id="f_g0" gradientUnits="userSpaceOnUse" x1="158.00578" y1="0" x2="158.00578" y2="887.94366">
			<stop offset="0" stop-color="rgb(253,90,124)"/>
			<stop offset="1" stop-color="rgb(253,124,83)"/>
		</linearGradient>
	</defs>
	<path fill="url(#f_g0)" stroke="none" transform="matrix(0.707107 -0.707107 0.707107 0.707107 740.235 285.907)" d="M158.006 0L158.006 0Q162.053 0 166.073 0.184195Q170.093 0.368391 174.078 0.736405Q178.062 1.10442 182.003 1.6555Q185.944 2.20659 189.834 2.93962Q193.724 3.67264 197.554 4.58612Q201.384 5.4996 205.147 6.59166Q208.91 7.68372 212.598 8.95214Q216.286 10.2206 219.891 11.6628Q223.497 13.1049 227.012 14.718Q230.528 16.331 233.947 18.1115Q237.365 19.8921 240.68 21.8365Q243.995 23.781 247.199 25.8854Q250.403 27.9898 253.489 30.2498Q256.576 32.5099 259.539 34.921Q262.502 37.332 265.336 39.8892Q268.169 42.4464 270.867 45.1445Q273.565 47.8426 276.122 50.6761Q278.68 53.5096 281.091 56.4727Q283.502 59.4358 285.762 62.5224Q288.022 65.6091 290.126 68.813Q292.231 72.017 294.175 75.3317Q296.12 78.6463 297.9 82.065Q299.681 85.4836 301.294 88.9993Q302.907 92.5149 304.349 96.1204Q305.791 99.7259 307.059 103.414Q308.328 107.102 309.42 110.865Q310.512 114.628 311.426 118.458Q312.339 122.288 313.072 126.178Q313.805 130.067 314.356 134.008Q314.907 137.949 315.275 141.934Q315.643 145.919 315.827 149.939Q316.012 153.959 316.012 158.006L316.012 729.938Q316.012 733.985 315.827 738.005Q315.643 742.025 315.275 746.01Q314.907 749.994 314.356 753.935Q313.805 757.877 313.072 761.766Q312.339 765.656 311.425 769.486Q310.512 773.316 309.42 777.079Q308.328 780.842 307.059 784.53Q305.791 788.218 304.349 791.823Q302.907 795.429 301.294 798.944Q299.681 802.46 297.9 805.879Q296.12 809.297 294.175 812.612Q292.231 815.927 290.126 819.131Q288.022 822.335 285.762 825.421Q283.502 828.508 281.091 831.471Q278.68 834.434 276.122 837.268Q273.565 840.101 270.867 842.799Q268.169 845.497 265.336 848.055Q262.502 850.612 259.539 853.023Q256.576 855.434 253.489 857.694Q250.403 859.954 247.199 862.058Q243.995 864.163 240.68 866.107Q237.365 868.052 233.947 869.832Q230.528 871.613 227.012 873.226Q223.497 874.839 219.891 876.281Q216.286 877.723 212.598 878.992Q208.91 880.26 205.147 881.352Q201.384 882.444 197.554 883.358Q193.724 884.271 189.834 885.004Q185.944 885.737 182.003 886.288Q178.062 886.839 174.078 887.207Q170.093 887.575 166.073 887.76Q162.053 887.944 158.006 887.944L158.006 887.944Q153.959 887.944 149.939 887.76Q145.919 887.575 141.934 887.207Q137.949 886.839 134.008 886.288Q130.067 885.737 126.178 885.004Q122.288 884.271 118.458 883.358Q114.628 882.444 110.865 881.352Q107.102 880.26 103.414 878.992Q99.7259 877.723 96.1204 876.281Q92.5149 874.839 88.9993 873.226Q85.4836 871.613 82.065 869.832Q78.6463 868.052 75.3316 866.107Q72.017 864.163 68.813 862.058Q65.6091 859.954 62.5224 857.694Q59.4358 855.434 56.4727 853.023Q53.5096 850.612 50.6761 848.054Q47.8426 845.497 45.1445 842.799Q42.4464 840.101 39.8892 837.268Q37.332 834.434 34.921 831.471Q32.5099 828.508 30.2498 825.421Q27.9898 822.335 25.8854 819.131Q23.781 815.927 21.8365 812.612Q19.8921 809.297 18.1115 805.879Q16.331 802.46 14.718 798.944Q13.1049 795.429 11.6628 791.823Q10.2206 788.218 8.95214 784.53Q7.68372 780.842 6.59166 777.079Q5.4996 773.316 4.58612 769.486Q3.67264 765.656 2.93962 761.766Q2.20659 757.877 1.6555 753.935Q1.10442 749.994 0.736405 746.01Q0.368391 742.025 0.184195 738.005Q-4.66853e-13 733.985 -4.66853e-13 729.938L-4.66853e-13 158.006Q-4.66853e-13 153.959 0.184195 149.939Q0.368391 145.919 0.736405 141.934Q1.10442 137.949 1.6555 134.008Q2.20659 130.067 2.93962 126.178Q3.67264 122.288 4.58612 118.458Q5.4996 114.628 6.59166 110.865Q7.68372 107.102 8.95214 103.414Q10.2206 99.7259 11.6628 96.1204Q13.1049 92.5149 14.718 88.9993Q16.331 85.4836 18.1115 82.065Q19.8921 78.6463 21.8365 75.3316Q23.781 72.017 25.8854 68.813Q27.9898 65.6091 30.2498 62.5224Q32.5099 59.4358 34.921 56.4727Q37.332 53.5096 39.8892 50.6761Q42.4464 47.8426 45.1445 45.1445Q47.8426 42.4464 50.6761 39.8892Q53.5096 37.332 56.4727 34.921Q59.4358 32.5099 62.5224 30.2498Q65.6091 27.9898 68.813 25.8854Q72.017 23.781 75.3317 21.8365Q78.6463 19.8921 82.065 18.1115Q85.4836 16.331 88.9993 14.718Q92.5149 13.1049 96.1204 11.6628Q99.7259 10.2206 103.414 8.95214Q107.102 7.68372 110.865 6.59166Q114.628 5.4996 118.458 4.58612Q122.288 3.67264 126.178 2.93962Q130.067 2.20659 134.008 1.6555Q137.949 1.10442 141.934 0.736405Q145.919 0.368391 149.939 0.184195Q153.959 0 158.006 0Z"/>
	<defs>
		<linearGradient id="f_g1" gradientUnits="userSpaceOnUse" x1="158.00578" y1="0" x2="158.00578" y2="887.94366">
			<stop offset="0" stop-color="rgb(0,208,138)"/>
			<stop offset="1" stop-color="rgb(38,199,255)"/>
		</linearGradient>
	</defs>
	<path fill="url(#f_g1)" stroke="none" transform="matrix(-0.707107 0.707107 -0.707107 -0.707107 851.63 968.992)" d="M158.006 0L158.006 0Q162.053 0 166.073 0.184195Q170.093 0.368391 174.078 0.736405Q178.062 1.10442 182.003 1.6555Q185.944 2.20659 189.834 2.93962Q193.724 3.67264 197.554 4.58612Q201.384 5.4996 205.147 6.59166Q208.91 7.68372 212.598 8.95214Q216.286 10.2206 219.891 11.6628Q223.497 13.1049 227.012 14.718Q230.528 16.331 233.947 18.1115Q237.365 19.8921 240.68 21.8365Q243.995 23.781 247.199 25.8854Q250.403 27.9898 253.489 30.2498Q256.576 32.5099 259.539 34.921Q262.502 37.332 265.336 39.8892Q268.169 42.4464 270.867 45.1445Q273.565 47.8426 276.122 50.6761Q278.68 53.5096 281.091 56.4727Q283.502 59.4358 285.762 62.5224Q288.022 65.6091 290.126 68.813Q292.231 72.017 294.175 75.3317Q296.12 78.6463 297.9 82.065Q299.681 85.4836 301.294 88.9993Q302.907 92.5149 304.349 96.1204Q305.791 99.7259 307.059 103.414Q308.328 107.102 309.42 110.865Q310.512 114.628 311.426 118.458Q312.339 122.288 313.072 126.178Q313.805 130.067 314.356 134.008Q314.907 137.949 315.275 141.934Q315.643 145.919 315.827 149.939Q316.012 153.959 316.012 158.006L316.012 729.938Q316.012 733.985 315.827 738.005Q315.643 742.025 315.275 746.01Q314.907 749.994 314.356 753.935Q313.805 757.877 313.072 761.766Q312.339 765.656 311.425 769.486Q310.512 773.316 309.42 777.079Q308.328 780.842 307.059 784.53Q305.791 788.218 304.349 791.823Q302.907 795.429 301.294 798.944Q299.681 802.46 297.9 805.879Q296.12 809.297 294.175 812.612Q292.231 815.927 290.126 819.131Q288.022 822.335 285.762 825.421Q283.502 828.508 281.091 831.471Q278.68 834.434 276.122 837.268Q273.565 840.101 270.867 842.799Q268.169 845.497 265.336 848.055Q262.502 850.612 259.539 853.023Q256.576 855.434 253.489 857.694Q250.403 859.954 247.199 862.058Q243.995 864.163 240.68 866.107Q237.365 868.052 233.947 869.832Q230.528 871.613 227.012 873.226Q223.497 874.839 219.891 876.281Q216.286 877.723 212.598 878.992Q208.91 880.26 205.147 881.352Q201.384 882.444 197.554 883.358Q193.724 884.271 189.834 885.004Q185.944 885.737 182.003 886.288Q178.062 886.839 174.078 887.207Q170.093 887.575 166.073 887.76Q162.053 887.944 158.006 887.944L158.006 887.944Q153.959 887.944 149.939 887.76Q145.919 887.575 141.934 887.207Q137.949 886.839 134.008 886.288Q130.067 885.737 126.178 885.004Q122.288 884.271 118.458 883.358Q114.628 882.444 110.865 881.352Q107.102 880.26 103.414 878.992Q99.7259 877.723 96.1204 876.281Q92.5149 874.839 88.9993 873.226Q85.4836 871.613 82.065 869.832Q78.6463 868.052 75.3316 866.107Q72.017 864.163 68.813 862.058Q65.6091 859.954 62.5224 857.694Q59.4358 855.434 56.4727 853.023Q53.5096 850.612 50.6761 848.054Q47.8426 845.497 45.1445 842.799Q42.4464 840.101 39.8892 837.268Q37.332 834.434 34.921 831.471Q32.5099 828.508 30.2498 825.421Q27.9898 822.335 25.8854 819.131Q23.781 815.927 21.8365 812.612Q19.8921 809.297 18.1115 805.879Q16.331 802.46 14.718 798.944Q13.1049 795.429 11.6628 791.823Q10.2206 788.218 8.95214 784.53Q7.68372 780.842 6.59166 777.079Q5.4996 773.316 4.58612 769.486Q3.67264 765.656 2.93962 761.766Q2.20659 757.877 1.6555 753.935Q1.10442 749.994 0.736405 746.01Q0.368391 742.025 0.184195 738.005Q-4.66853e-13 733.985 -4.66853e-13 729.938L-4.66853e-13 158.006Q-4.66853e-13 153.959 0.184195 149.939Q0.368391 145.919 0.736405 141.934Q1.10442 137.949 1.6555 134.008Q2.20659 130.067 2.93962 126.178Q3.67264 122.288 4.58612 118.458Q5.4996 114.628 6.59166 110.865Q7.68372 107.102 8.95214 103.414Q10.2206 99.7259 11.6628 96.1204Q13.1049 92.5149 14.718 88.9993Q16.331 85.4836 18.1115 82.065Q19.8921 78.6463 21.8365 75.3316Q23.781 72.017 25.8854 68.813Q27.9898 65.6091 30.2498 62.5224Q32.5099 59.4358 34.921 56.4727Q37.332 53.5096 39.8892 50.6761Q42.4464 47.8426 45.1445 45.1445Q47.8426 42.4464 50.6761 39.8892Q53.5096 37.332 56.4727 34.921Q59.4358 32.5099 62.5224 30.2498Q65.6091 27.9898 68.813 25.8854Q72.017 23.781 75.3317 21.8365Q78.6463 19.8921 82.065 18.1115Q85.4836 16.331 88.9993 14.718Q92.5149 13.1049 96.1204 11.6628Q99.7259 10.2206 103.414 8.95214Q107.102 7.68372 110.865 6.59166Q114.628 5.4996 118.458 4.58612Q122.288 3.67264 126.178 2.93962Q130.067 2.20659 134.008 1.6555Q137.949 1.10442 141.934 0.736405Q145.919 0.368391 149.939 0.184195Q153.959 0 158.006 0Z"/>
	<defs>
		<linearGradient id="f_g2" gradientUnits="userSpaceOnUse" x1="717.84399" y1="0" x2="73.959862" y2="703.71332">
			<stop offset="0" stop-color="rgb(23,23,74)"/>
			<stop offset="1" stop-color="rgb(158,55,203)"/>
		</linearGradient>
	</defs>
	<path fill="url(#f_g2)" stroke="none" transform="matrix(-1 0 0 -1 1525.58 1252.48)" d="M671.813 46.1869C733.192 107.77 733.191 207.618 671.793 269.221L268.323 674.038C241.35 701.1 185.152 779.258 232.723 860.847C232.723 860.847 80.4496 708.591 46.0311 674.058C-15.3476 612.474 -15.3466 512.626 46.0513 451.024L449.521 46.2071C510.911 -15.3877 610.421 -15.4103 671.813 46.1869Z"/>
	<defs>
		<linearGradient id="f_g3" gradientUnits="userSpaceOnUse" x1="658.20654" y1="84.135399" x2="0" y2="700.49561">
			<stop offset="0" stop-color="rgb(253,124,83)"/>
			<stop offset="1" stop-color="rgb(250,191,0)"/>
		</linearGradient>
	</defs>
	<path fill="url(#f_g3)" stroke="none" transform="translate(63.5279 0.270386)" d="M671.813 46.1869C733.192 107.77 733.191 207.618 671.793 269.221L268.323 674.038C241.35 701.1 185.152 779.258 232.723 860.847C232.723 860.847 80.4496 708.591 46.0311 674.058C-15.3476 612.474 -15.3466 512.626 46.0513 451.024L449.521 46.2071C510.911 -15.3877 610.421 -15.4103 671.813 46.1869Z"/>
</svg>
