<svg xmlns="http://www.w3.org/2000/svg" viewBox="0 0 391 393" width="391" height="393">
  <defs>
    <linearGradient id="bg" x1="0" y1="0" x2="1" y2="1">
      <stop offset="0%" stop-color="#fdf2f8"/>
      <stop offset="100%" stop-color="#fce7f3"/>
    </linearGradient>
    <linearGradient id="a" x1="0" y1="0" x2="1" y2="1">
      <stop offset="0%" stop-color="#ec4899"/>
      <stop offset="100%" stop-color="#f97316"/>
    </linearGradient>
    <linearGradient id="b" x1="0" y1="1" x2="1" y2="0">
      <stop offset="0%" stop-color="#6366f1"/>
      <stop offset="100%" stop-color="#ec4899"/>
    </linearGradient>
  </defs>
  <rect width="391" height="393" fill="url(#bg)"/>
  <rect x="1" y="1" width="389" height="391" fill="none" stroke="#17174a" stroke-width="1" opacity="0.2"/>
  <!-- grid of dots -->
  <circle cx="130" cy="146" r="10" fill="url(#a)" opacity="0.5"/>
  <circle cx="165" cy="146" r="10" fill="url(#a)" opacity="0.4"/>
  <circle cx="200" cy="146" r="10" fill="url(#b)" opacity="0.4"/>
  <circle cx="235" cy="146" r="10" fill="url(#b)" opacity="0.5"/>
  <circle cx="270" cy="146" r="10" fill="url(#a)" opacity="0.35"/>
  <circle cx="130" cy="181" r="10" fill="url(#b)" opacity="0.4"/>
  <circle cx="165" cy="181" r="14" fill="url(#a)" opacity="0.5"/>
  <circle cx="200" cy="181" r="14" fill="url(#b)" opacity="0.5"/>
  <circle cx="235" cy="181" r="14" fill="url(#a)" opacity="0.4"/>
  <circle cx="270" cy="181" r="10" fill="url(#b)" opacity="0.35"/>
  <circle cx="130" cy="216" r="10" fill="url(#a)" opacity="0.35"/>
  <circle cx="165" cy="216" r="14" fill="url(#b)" opacity="0.45"/>
  <circle cx="200" cy="216" r="20" fill="url(#a)" opacity="0.55"/>
  <circle cx="235" cy="216" r="14" fill="url(#b)" opacity="0.4"/>
  <circle cx="270" cy="216" r="10" fill="url(#a)" opacity="0.3"/>
  <circle cx="130" cy="251" r="10" fill="url(#b)" opacity="0.3"/>
  <circle cx="165" cy="251" r="10" fill="url(#a)" opacity="0.35"/>
  <circle cx="200" cy="251" r="10" fill="url(#b)" opacity="0.4"/>
  <circle cx="235" cy="251" r="10" fill="url(#a)" opacity="0.35"/>
  <circle cx="270" cy="251" r="10" fill="url(#b)" opacity="0.3"/>
</svg>
