<svg xmlns="http://www.w3.org/2000/svg" viewBox="0 0 1200 630" width="1200" height="630">
  <defs>
    <linearGradient id="bg" x1="0" y1="0" x2="1" y2="1">
      <stop offset="0%" stop-color="#f0eeff"/>
      <stop offset="100%" stop-color="#fef0f8"/>
    </linearGradient>
    <linearGradient id="shape1" x1="0" y1="0" x2="0" y2="1">
      <stop offset="0%" stop-color="#fd5a7c"/>
      <stop offset="100%" stop-color="#fd7c53"/>
    </linearGradient>
    <linearGradient id="shape2" x1="0" y1="0" x2="0" y2="1">
      <stop offset="0%" stop-color="#00d08a"/>
      <stop offset="100%" stop-color="#26c7ff"/>
    </linearGradient>
    <linearGradient id="shape3" x1="0" y1="0" x2="1" y2="1">
      <stop offset="0%" stop-color="#17174a"/>
      <stop offset="100%" stop-color="#9e37cb"/>
    </linearGradient>
  </defs>
  <rect width="1200" height="630" fill="url(#bg)"/>
  <rect x="1" y="1" width="1198" height="628" fill="none" stroke="#17174a" stroke-width="1" opacity="0.2"/>
  <path fill="url(#shape3)" opacity="0.15" d="M510 120 L630 315 L510 510 L470 510 L590 315 L470 120Z"/>
  <path fill="url(#shape3)" opacity="0.15" d="M570 120 L690 315 L570 510 L530 510 L650 315 L530 120Z"/>
  <rect fill="url(#shape1)" opacity="0.5" x="565" y="245" width="90" height="90" rx="8" transform="rotate(45 610 290)"/>
  <rect fill="url(#shape2)" opacity="0.5" x="590" y="270" width="75" height="75" rx="7" transform="rotate(45 627 307)"/>
</svg>
