<svg xmlns="http://www.w3.org/2000/svg" viewBox="0 0 440 280" width="440" height="280">
  <defs>
    <linearGradient id="bg" x1="0" y1="0" x2="1" y2="1">
      <stop offset="0%" stop-color="#f0eeff"/>
      <stop offset="100%" stop-color="#fef0f8"/>
    </linearGradient>
    <linearGradient id="shape1" x1="0" y1="0" x2="0" y2="1">
      <stop offset="0%" stop-color="#fd5a7c"/>
      <stop offset="100%" stop-color="#fd7c53"/>
    </linearGradient>
    <linearGradient id="shape2" x1="0" y1="0" x2="0" y2="1">
      <stop offset="0%" stop-color="#00d08a"/>
      <stop offset="100%" stop-color="#26c7ff"/>
    </linearGradient>
    <linearGradient id="shape3" x1="0" y1="0" x2="1" y2="1">
      <stop offset="0%" stop-color="#17174a"/>
      <stop offset="100%" stop-color="#9e37cb"/>
    </linearGradient>
  </defs>
  <rect width="440" height="280" fill="url(#bg)"/>
  <rect x="1" y="1" width="438" height="278" fill="none" stroke="#17174a" stroke-width="1" opacity="0.2"/>
  <!-- chevron left -->
  <path fill="url(#shape3)" opacity="0.15" d="M160 60 L220 140 L160 220 L130 220 L190 140 L130 60Z"/>
  <!-- chevron right -->
  <path fill="url(#shape3)" opacity="0.15" d="M200 60 L260 140 L200 220 L170 220 L230 140 L170 60Z"/>
  <!-- diamond pink -->
  <rect fill="url(#shape1)" opacity="0.5" x="185" y="95" width="60" height="60" rx="6" transform="rotate(45 215 125)"/>
  <!-- diamond teal -->
  <rect fill="url(#shape2)" opacity="0.5" x="205" y="115" width="50" height="50" rx="5" transform="rotate(45 230 140)"/>
</svg>
