<svg xmlns="http://www.w3.org/2000/svg" viewBox="0 0 391 393" width="391" height="393">
  <defs>
    <linearGradient id="bg" x1="0" y1="0" x2="1" y2="1">
      <stop offset="0%" stop-color="#f0eeff"/>
      <stop offset="100%" stop-color="#fef0f8"/>
    </linearGradient>
    <linearGradient id="shape1" x1="0" y1="0" x2="0" y2="1">
      <stop offset="0%" stop-color="#fd5a7c"/>
      <stop offset="100%" stop-color="#fd7c53"/>
    </linearGradient>
    <linearGradient id="shape2" x1="0" y1="0" x2="0" y2="1">
      <stop offset="0%" stop-color="#00d08a"/>
      <stop offset="100%" stop-color="#26c7ff"/>
    </linearGradient>
    <linearGradient id="shape3" x1="0" y1="0" x2="1" y2="1">
      <stop offset="0%" stop-color="#17174a"/>
      <stop offset="100%" stop-color="#9e37cb"/>
    </linearGradient>
  </defs>
  <rect width="391" height="393" fill="url(#bg)"/>
  <rect x="1" y="1" width="389" height="391" fill="none" stroke="#17174a" stroke-width="1" opacity="0.2"/>
  <path fill="url(#shape3)" opacity="0.15" d="M145 80 L205 196 L145 313 L115 313 L175 196 L115 80Z"/>
  <path fill="url(#shape3)" opacity="0.15" d="M185 80 L245 196 L185 313 L155 313 L215 196 L155 80Z"/>
  <rect fill="url(#shape1)" opacity="0.5" x="163" y="151" width="60" height="60" rx="6" transform="rotate(45 193 181)"/>
  <rect fill="url(#shape2)" opacity="0.5" x="183" y="171" width="50" height="50" rx="5" transform="rotate(45 208 196)"/>
</svg>
